PathFileType	4	(X/Y/Z)	9_coords_data.trc
DataRate	CameraRate	NumFrames	NumMarkers	Units	OrigDataRate	OrigDataStartFrame	OrigNumFrames
30.0	30.0	8	21	m	30.0	19	47
Frame#	Time	THUMB_TIP	THUMB_IP	THUMB_MCP	THUMB_CMC	INDEX_TIP	INDEX_DIP	INDEX_PIP	INDEX_MCP	MIDDLE_TIP	MIDDLE_DIP	MIDDLE_PIP	MIDDLE_MCP	RING_TIP	RING_DIP	RING_PIP	RING_MCP	PINKY_TIP	PINKY_DIP	PINKY_PIP	PINKY_MCP	WRIST
X1	Y1	Z1	X2	Y2	Z2	X3	Y3	Z3	X4	Y4	Z4	X5	Y5	Z5	X6	Y6	Z6	X7	Y7	Z7	X8	Y8	Z8	X9	Y9	Z9	X10	Y10	Z10	X11	Y11	Z11	X12	Y12	Z12	X13	Y13	Z13	X14	Y14	Z14	X15	Y15	Z15	X16	Y16	Z16	X17	Y17	Z17	X18	Y18	Z18	X19	Y19	Z19	X20	Y20	Z20	X21	Y21	Z21
18	0.6	0.040700401306152344	-0.11762999725341797	0.9985369873046875	0.0356442985534668	-0.09352010345458985	1.00902001953125	0.022829599380493164	-0.07168309783935548	1.02652001953125	0.012591699600219726	-0.039600700378417966	1.0412900390625	0.019919300079345705	-0.0740083999633789	0.8994940185546875	0.019323299407958985	-0.06880400085449219	0.9219970092773437	0.01673200035095215	-0.06331159973144532	0.944052001953125	0.01602750015258789	-0.05222010040283203	0.983010986328125	0.019462600708007812	-0.030919700622558593	0.8812979736328125	0.018040000915527345	-0.032029399871826174	0.9070020141601562	0.012043100357055664	-0.03156719970703125	0.9371829833984375	0.010454299926757813	-0.029708200454711915	0.9792639770507813	0.03366690063476562	0.005384309768676758	0.8956259765625	0.026937599182128905	0.002954420089721679	0.9192100219726562	0.016670700073242187	-0.001212610006332397	0.9457930297851562	0.011134200096130371	-0.007683420181274414	0.9846279907226563	0.03858290100097656	0.053131999969482424	0.9459730224609375	0.030666500091552733	0.042846298217773436	0.961926025390625	0.02226189994812012	0.03253929901123047	0.9755640258789062	0.013159899711608887	0.013397100448608399	0.9964920043945312	-0.01890559959411621	-0.020474199295043946	1.061530029296875
19	0.6333333333333333	0.05895560073852539	-0.1029720001220703	0.9938729858398437	0.04737900161743164	-0.08258799743652344	1.0066900024414063	0.030126399993896484	-0.06613150024414062	1.0253699951171875	0.01579189968109131	-0.036666301727294924	1.04025	0.026118999481201173	-0.07259519958496094	0.9002769775390626	0.022570999145507812	-0.06822820281982422	0.9226690063476563	0.017808300018310547	-0.06355989837646485	0.9444229736328125	0.01563819980621338	-0.05308319854736328	0.983051025390625	0.023674699783325197	-0.03172310066223145	0.8821309814453125	0.019719200134277345	-0.03276169967651367	0.9074929809570312	0.01151490020751953	-0.03264139938354492	0.9368989868164063	0.008707050323486329	-0.030803600311279298	0.9789949951171875	0.03968389892578125	0.004652100086212158	0.898052978515625	0.029821500778198243	0.002268919944763183	0.9202650146484375	0.016380899429321288	-0.002010159969329834	0.9455869750976562	0.008100830078125	-0.008686869621276856	0.9838759765625	0.038300701141357425	0.04959650039672851	0.9447100219726563	0.029060400009155274	0.04046900177001953	0.9603040161132812	0.019657400131225584	0.03105769920349121	0.9740079956054688	0.009939430236816406	0.012840200424194335	0.9956580200195313	-0.017966400146484374	-0.020737499237060548	1.0614100341796875
20	0.6666666666666666	0.070714599609375	-0.08702770233154297	0.9898259887695312	0.05460129928588867	-0.07117949676513671	1.0046699829101562	0.03482550048828125	-0.059687198638916014	1.0245999755859374	0.017578100204467772	-0.03366400146484375	1.03897998046875	0.03766790008544922	-0.06932029724121094	0.9031119995117187	0.02937730026245117	-0.06673269653320313	0.92427001953125	0.020413299560546876	-0.06381809997558593	0.9451190185546875	0.014005100250244141	-0.05452280044555664	0.9833270263671875	0.035814998626708984	-0.031128499984741213	0.8854340209960937	0.0269950008392334	-0.03277880096435547	0.9090280151367187	0.013943699836730957	-0.03357419967651367	0.9366190185546875	0.0062659502029418935	-0.032401199340820315	0.978427978515625	0.051525501251220705	0.0033180301189422597	0.9045079956054688	0.03715719985961914	0.0009774230122566222	0.9236179809570313	0.018696300506591795	-0.0032739100456237787	0.9459130249023437	0.005499629974365234	-0.010017200469970703	0.9828619995117187	0.04181779861450195	0.0435192985534668	0.9450700073242188	0.02965439987182617	0.036489700317382814	0.9594619750976563	0.018097900390625	0.028452899932861327	0.9727210083007812	0.006980120182037353	0.011984700202941895	0.9943809814453125	-0.017442399978637696	-0.02077400016784668	1.061550048828125
21	0.7	0.0746509017944336	-0.07561740112304688	0.9863090209960937	0.0568406982421875	-0.06349399948120117	1.0029299926757813	0.03645989990234375	-0.0553291015625	1.0239400024414063	0.018076099395751954	-0.03167289924621582	1.03818994140625	0.0524213981628418	-0.06290790176391602	0.9097849731445312	0.039082099914550784	-0.06301409912109375	0.9277479858398437	0.02524329948425293	-0.06263800048828125	0.9461519775390625	0.012545299530029298	-0.05598880004882813	0.9839359741210938	0.052070598602294925	-0.027857400894165038	0.8934530029296875	0.03820190048217773	-0.03085330009460449	0.913572021484375	0.019281000137329102	-0.033286598205566405	0.9374719848632812	0.004552330017089844	-0.0338114013671875	0.9781719970703125	0.06220199966430664	0.0013588199615478511	0.9131690063476563	0.044394798278808593	-0.000591417014598846	0.9283289794921875	0.02174440002441406	-0.004629600048065186	0.946927001953125	0.003283109903335571	-0.011106800079345704	0.98227001953125	0.046927299499511715	0.03587699890136719	0.94789697265625	0.03166469955444336	0.031805200576782225	0.9593599853515625	0.01724850082397461	0.025882699966430663	0.9713179931640625	0.004606269836425782	0.011330599784851075	0.9931749877929688	-0.016960399627685547	-0.02073419952392578	1.0616700439453124
22	0.7333333333333333	0.0760927963256836	-0.06920999908447266	0.9846580200195313	0.05757099914550781	-0.05919779968261719	1.0021699829101562	0.03693479919433594	-0.05262250137329102	1.0236900024414062	0.018363100051879883	-0.029960100173950194	1.0374300537109375	0.06488169860839844	-0.055611801147460935	0.9192769775390625	0.047906898498535154	-0.0581343002319336	0.9329829711914063	0.030108800888061525	-0.05996839904785156	0.9480430297851562	0.01162030029296875	-0.056511199951171875	0.9841329956054687	0.0622853012084961	-0.025873699188232423	0.9012410278320313	0.04534230041503906	-0.029429700851440428	0.9182260131835938	0.022614900588989257	-0.03257490158081055	0.9388280029296875	0.003190299987792968	-0.03426699829101563	0.9784450073242188	0.06659290313720703	0.000684257984161377	0.9191430053710937	0.04722959899902344	-0.0010531400442123412	0.9316409912109375	0.022296100616455077	-0.005058110237121582	0.9473179931640625	0.001804110050201416	-0.01139150047302246	0.9817479858398438	0.04949499893188476	0.030860200881958007	0.9512730102539062	0.03271440124511719	0.02906920051574707	0.9600159912109375	0.01663279914855957	0.024638900756835936	0.9705490112304688	0.003015589952468872	0.011257699966430664	0.99247900390625	-0.016454700469970704	-0.02043280029296875	1.06177001953125
23	0.7666666666666667	0.077256103515625	-0.0635281982421875	0.9835460205078125	0.05819219970703125	-0.0550890998840332	1.001760009765625	0.03723580169677734	-0.050155399322509765	1.0236300048828124	0.018752899169921875	-0.028365999221801757	1.0375799560546874	0.07173079681396484	-0.05066410064697266	0.9271900024414063	0.05311579895019531	-0.0546708984375	0.9377570190429687	0.03319139862060547	-0.057970500946044924	0.949989990234375	0.011264699935913086	-0.056274700164794925	0.9844349975585938	0.06815889739990234	-0.025174800872802734	0.9076300048828125	0.049435600280761716	-0.028829099655151368	0.9221370239257812	0.024460699081420897	-0.03238909912109375	0.9398989868164063	0.00258351993560791	-0.03413169860839844	0.9782449951171875	0.06800910186767578	0.001283239960670471	0.9228740234375	0.047812801361083984	-0.0005484570264816281	0.9336740112304688	0.021852500915527345	-0.0046933298110961915	0.9475540161132813	0.000778361022472381	-0.011092700004577637	0.9816229858398438	0.049777099609375	0.028348800659179687	0.9536090087890625	0.03238370132446289	0.02797520065307617	0.9605369873046875	0.015340000152587891	0.02444420051574707	0.9699329833984375	0.00170999002456665	0.011710200309753418	0.9921179809570313	-0.016235799789428712	-0.019711700439453125	1.0619100341796874
24	0.8	0.07873770141601563	-0.05869789886474609	0.9837839965820312	0.058985198974609375	-0.051586700439453126	1.0020999755859374	0.03825960159301758	-0.04783520126342773	1.0229199829101563	0.018753299713134764	-0.026939300537109374	1.0368900146484374	0.07476709747314453	-0.046819198608398435	0.9314539794921874	0.055617599487304686	-0.05174810028076172	0.9405	0.03492779922485351	-0.0559650993347168	0.9510239868164062	0.011548399925231934	-0.05537139892578125	0.9846430053710937	0.0718572006225586	-0.02254360008239746	0.9124320068359375	0.0522328987121582	-0.026674400329589842	0.9250809936523438	0.026048599243164064	-0.030925100326538085	0.9408770141601562	0.002406519889831543	-0.03351079940795899	0.9784450073242188	0.06876540374755859	0.0027705600261688232	0.9254829711914062	0.048191600799560544	0.000685208022594451	0.9351480102539063	0.021722400665283203	-0.0037552399635314942	0.9480590209960937	3.1907398253679e-05	-0.010435099601745606	0.9816900024414063	0.04897990036010742	0.027845300674438477	0.9553359985351563	0.031333700180053714	0.028098300933837892	0.9610709838867187	0.013866900444030762	0.024948200225830077	0.9697890014648437	0.000418067991733551	0.012383199691772461	0.9920800170898437	-0.01613479995727539	-0.019097700119018554	1.06218994140625
25	0.8333333333333334	0.08162539672851563	-0.05213679885864258	0.985302978515625	0.06082709884643555	-0.0466234016418457	1.0030800170898437	0.03958039855957031	-0.0444370002746582	1.023010009765625	0.018878700256347657	-0.02466780090332031	1.0373299560546876	0.07668720245361328	-0.04310279846191406	0.93360400390625	0.05736479949951172	-0.048707901000976564	0.9416740112304688	0.0365620002746582	-0.05368280029296875	0.9516849975585937	0.01248960018157959	-0.05384640121459961	0.98452197265625	0.07265160369873047	-0.019265100479125975	0.9137570190429688	0.05282369995117187	-0.02396209907531738	0.9258660278320312	0.026517200469970702	-0.028923799514770508	0.9411669921875	0.002940540075302124	-0.032252399444580075	0.9786179809570312	0.06887670135498047	0.0057737698554992676	0.9272249755859375	0.0481505012512207	0.0031415200233459468	0.9361199951171875	0.021526399612426757	-0.0018911399841308589	0.9485549926757812	-9.206789731979301e-05	-0.009243450164794921	0.9818489990234375	0.04886840057373047	0.02928499984741211	0.9575380249023437	0.031121200561523437	0.029593000411987303	0.962343017578125	0.013406399726867677	0.026377500534057616	0.9704530029296875	-0.000271795004606246	0.0135871000289917	0.9925880126953125	-0.01639500045776367	-0.01851609992980957	1.0624000244140626
